name E:\Dropbox\SEL\BOX\Experiment\240124_SUB1_PJH\c3d\XYZ\UpDown_TrcMot\15_10_trial2_D1_ExtLoadAPP1.mot
datacolumns 37
datarows 15
range 7.01 7.024
endheader

time	    ground_force1_vx	    ground_force1_vy	    ground_force1_vz	    ground_force1_px	    ground_force1_py	    ground_force1_pz	    ground_torque1_x	    ground_torque1_y	    ground_torque1_z	    ground_force2_vx	    ground_force2_vy	    ground_force2_vz	    ground_force2_px	    ground_force2_py	    ground_force2_pz	    ground_torque2_x	    ground_torque2_y	    ground_torque2_z	      hand_force3_vx	      hand_force3_vy	      hand_force3_vz	      hand_force3_px	      hand_force3_py	      hand_force3_pz	      hand_torque3_x	      hand_torque3_y	      hand_torque3_z	      hand_force4_vx	      hand_force4_vy	      hand_force4_vz	      hand_force4_px	      hand_force4_py	      hand_force4_pz	      hand_torque4_x	      hand_torque4_y	      hand_torque4_z	
7.01	         34.54155573	        332.69400675	         21.21402528	          0.21910259	          0.00000000	          0.18139186	          0.00000000	          0.48263307	          0.00000000	        -38.06004259	        405.88251155	         19.08892084	          0.57421205	          0.00000000	          0.18733424	          0.00000000	          0.43838017	          0.00000000	         -3.75658020	          1.20590303	          1.80129516	          0.23961962	          0.97558159	         -0.35946930	         -0.00023274	         -0.06703472	          0.00024301	          6.84275676	          1.54057424	          1.75679639	          0.55989622	          0.97558159	         -0.35927744	          0.00046208	          0.12872764	         -0.00043137	
7.011	         34.52722776	        332.93283592	         21.10856588	          0.21910903	          0.00000000	          0.18135493	          0.00000000	          0.48881351	          0.00000000	        -38.12982123	        406.52639220	         19.04390856	          0.57419600	          0.00000000	          0.18729378	          0.00000000	          0.43161805	          0.00000000	         -3.95551627	          1.30162969	          1.91401162	          0.23970095	          0.97558131	         -0.35945524	         -0.00022844	         -0.06588095	          0.00023249	          6.95697619	          1.65025016	          1.81394346	          0.55978657	          0.97558131	         -0.35928877	          0.00046864	          0.13073205	         -0.00043327	
7.012	         34.51257836	        333.18386507	         20.99886573	          0.21911610	          0.00000000	          0.18132106	          0.00000000	          0.49469460	          0.00000000	        -38.19901534	        407.18602003	         18.99820137	          0.57417928	          0.00000000	          0.18725430	          0.00000000	          0.42514568	          0.00000000	         -4.15722367	          1.40032332	          2.03055702	          0.23978791	          0.97558117	         -0.35943906	         -0.00022315	         -0.06444192	          0.00022062	          7.07055098	          1.76024852	          1.87181936	          0.55967315	          0.97558117	         -0.35929991	          0.00047471	          0.13260481	         -0.00043435	
7.013	         34.49750411	        333.44720890	         20.88507811	          0.21912384	          0.00000000	          0.18129017	          0.00000000	          0.50026833	          0.00000000	        -38.26743499	        407.86121007	         18.95186828	          0.57416186	          0.00000000	          0.18721573	          0.00000000	          0.41897789	          0.00000000	         -4.36143572	          1.50189039	          2.15086314	          0.23988044	          0.97558117	         -0.35942071	         -0.00021684	         -0.06270978	          0.00020736	          7.18346640	          1.87040930	          1.93040870	          0.55955624	          0.97558117	         -0.35931079	          0.00048026	          0.13434082	         -0.00043458	
7.014	         34.48189919	        333.72296007	         20.76736189	          0.21913225	          0.00000000	          0.18126218	          0.00000000	          0.50552698	          0.00000000	        -38.33489385	        408.55174853	         18.90497606	          0.57414371	          0.00000000	          0.18717802	          0.00000000	          0.41312866	          0.00000000	         -4.56787812	          1.60622539	          2.27485142	          0.23997843	          0.97558132	         -0.35940018	         -0.00020949	         -0.06067736	          0.00019270	          7.29571149	          1.98056547	          1.98969530	          0.55943616	          0.97558132	         -0.35932138	          0.00048528	          0.13593522	         -0.00043394	
7.015	         34.46565596	        334.01118883	         20.64588106	          0.21914138	          0.00000000	          0.18123703	          0.00000000	          0.51046323	          0.00000000	        -38.40120994	        409.25739342	         18.85758903	          0.57412483	          0.00000000	          0.18714109	          0.00000000	          0.40761106	          0.00000000	         -4.77626983	          1.71321061	          2.40243279	          0.24008173	          0.97558163	         -0.35937743	         -0.00020108	         -0.05833827	          0.00017663	          7.40727887	          2.09054285	          2.04966199	          0.55931326	          0.97558163	         -0.35933160	          0.00048976	          0.13738340	         -0.00043243	
7.016	         34.44866545	        334.31194279	         20.52080403	          0.21915124	          0.00000000	          0.18121462	          0.00000000	          0.51507012	          0.00000000	        -38.46620627	        409.97787514	         18.80976893	          0.57410519	          0.00000000	          0.18710486	          0.00000000	          0.40243723	          0.00000000	         -4.98632394	          1.82271596	          2.53350767	          0.24019019	          0.97558210	         -0.35935247	         -0.00019159	         -0.05568689	          0.00015916	          7.51816457	          2.20015992	          2.11029043	          0.55918792	          0.97558210	         -0.35934141	          0.00049368	          0.13868100	         -0.00043002	
7.017	         34.43081791	        334.62524662	         20.39230304	          0.21916185	          0.00000000	          0.18119486	          0.00000000	          0.51934116	          0.00000000	        -38.52971159	        410.71289723	         18.76157471	          0.57408480	          0.00000000	          0.18706928	          0.00000000	          0.39761833	          0.00000000	         -5.19774862	          1.93459880	          2.66796586	          0.24030361	          0.97558275	         -0.35932528	         -0.00018100	         -0.05271844	          0.00014027	          7.62836783	          2.30922768	          2.17156092	          0.55906056	          0.97558275	         -0.35935074	          0.00049704	          0.13982389	         -0.00042671	
7.018	         34.41200334	        334.95110196	         20.26055352	          0.21917322	          0.00000000	          0.18117767	          0.00000000	          0.52327034	          0.00000000	        -38.59156096	        411.46213724	         18.71306250	          0.57406363	          0.00000000	          0.18703426	          0.00000000	          0.39316445	          0.00000000	         -5.41024805	          2.04870384	          2.80568653	          0.24042176	          0.97558357	         -0.35929587	         -0.00016931	         -0.04942904	          0.00011996	          7.73789092	          2.41754942	          2.23345217	          0.55893162	          0.97558357	         -0.35935954	          0.00049981	          0.14080821	         -0.00042248	
7.019	         34.39211211	        335.28948723	         20.12573341	          0.21918539	          0.00000000	          0.18116293	          0.00000000	          0.52685221	          0.00000000	        -38.65159644	        412.22524761	         18.66428543	          0.57404168	          0.00000000	          0.18699973	          0.00000000	          0.38908464	          0.00000000	         -5.62352338	          2.16486299	          2.94653817	          0.24054439	          0.97558457	         -0.35926426	         -0.00015650	         -0.04581574	          0.00009827	          7.84673892	          2.52492061	          2.29594106	          0.55880157	          0.97558457	         -0.35936773	          0.00050199	          0.14163037	         -0.00041734	
7.02	         34.37103545	        335.64035765	         19.98802251	          0.21919836	          0.00000000	          0.18115055	          0.00000000	          0.53008187	          0.00000000	        -38.70966767	        413.00185669	         18.61529361	          0.57401894	          0.00000000	          0.18696563	          0.00000000	          0.38538683	          0.00000000	         -5.83727375	          2.28289527	          3.09037865	          0.24067120	          0.97558577	         -0.35923048	         -0.00014258	         -0.04187657	          0.00007518	          7.95491949	          2.63112870	          2.35900238	          0.55867093	          0.97558577	         -0.35937528	          0.00050357	          0.14228702	         -0.00041128	
7.021	         34.34866607	        336.00364521	         19.84760177	          0.21921214	          0.00000000	          0.18114043	          0.00000000	          0.53295503	          0.00000000	        -38.76563244	        413.79156981	         18.56613403	          0.57399542	          0.00000000	          0.18693186	          0.00000000	          0.38207779	          0.00000000	         -6.05119728	          2.40260676	          3.23705516	          0.24080188	          0.97558716	         -0.35919456	         -0.00012753	         -0.03761059	          0.00005074	          8.06244270	          2.73595296	          2.42260860	          0.55854022	          0.97558716	         -0.35938210	          0.00050454	          0.14277511	         -0.00040430	
7.022	         34.32489869	        336.37925872	         19.70465261	          0.21922676	          0.00000000	          0.18113246	          0.00000000	          0.53546808	          0.00000000	        -38.81935728	        414.59397039	         18.51685057	          0.57397112	          0.00000000	          0.18689838	          0.00000000	          0.37916315	          0.00000000	         -6.26499207	          2.52379052	          3.38640430	          0.24093607	          0.97558875	         -0.35915655	         -0.00011136	         -0.03301790	          0.00002496	          8.16932081	          2.83916433	          2.48672955	          0.55841001	          0.97558875	         -0.35938815	          0.00050490	          0.14309182	         -0.00039641	
7.023	         34.29963065	        336.76708395	         19.55935625	          0.21924223	          0.00000000	          0.18112652	          0.00000000	          0.53761809	          0.00000000	        -38.87071791	        415.40862120	         18.46748396	          0.57394603	          0.00000000	          0.18686509	          0.00000000	          0.37664732	          0.00000000	         -6.47835720	          2.64622661	          3.53825214	          0.24107339	          0.97559055	         -0.35911652	         -0.00009408	         -0.02809971	         -0.00000212	          8.27556802	          2.94052526	          2.55133216	          0.55828091	          0.97559055	         -0.35939335	          0.00050463	          0.14323463	         -0.00038761	
7.024	         34.27276239	        337.16698379	         19.41189299	          0.21925855	          0.00000000	          0.18112250	          0.00000000	          0.53940286	          0.00000000	        -38.91959976	        416.23506562	         18.41807182	          0.57392016	          0.00000000	          0.18683193	          0.00000000	          0.37453352	          0.00000000	         -6.69099374	          2.76968206	          3.69241425	          0.24121340	          0.97559256	         -0.35907453	         -0.00007571	         -0.02285836	         -0.00003047	          8.38120029	          3.03978961	          2.61638017	          0.55815353	          0.97559256	         -0.35939766	          0.00050374	          0.14320126	         -0.00037791	
